<?xml version="1.0" encoding="UTF-8"?>
<svg width="150px" height="59px" viewBox="0 0 150 59" version="1.1" xmlns="http://www.w3.org/2000/svg" xmlns:xlink="http://www.w3.org/1999/xlink">
    <title>lhi Logo</title>
    <g id="App" stroke="none" stroke-width="1" fill="none" fill-rule="evenodd">
        <g id="Flash-Screen" transform="translate(-98.000000, -235.000000)" fill="#FFFFFF">
            <g id="lhi-Logo" transform="translate(99.000000, 235.000000)">
                <text id="lhi" font-family="Roboto-Black, Roboto" font-size="41" font-weight="800" letter-spacing="-1">
                    <tspan x="0" y="49">lhi</tspan>
                </text>
                <g id="cow" transform="translate(114.000000, 13.000000) scale(-1, 1) translate(-114.000000, -13.000000) translate(95.000000, 0.000000)" fill-rule="nonzero">
                    <path d="M32.4335938,3.17748329 L14.1015625,3.17748329 L14.1015625,2.44127308 L12.1393672,2.44127308 C12.523375,2.02906898 12.8604023,1.56717069 13.1384258,1.0608053 L11.1830586,0.0044172613 C10.3578203,1.50753766 8.77451172,2.44127308 7.05100391,2.44127308 C5.32541797,2.44127308 3.74114453,1.50584438 2.9165,0 L0.960019531,1.05425303 C1.23871094,1.56319515 1.577,2.02730207 1.96264063,2.44127308 L0,2.44127308 L0,3.5455884 C0,4.519889 0.799113281,5.31249292 1.78125,5.31249292 L2.60641406,5.31249292 L3.5815,10.6324216 C3.80623437,11.8583588 4.88114453,12.7482161 6.13729688,12.7482161 L6.99808594,12.7482161 C8.22469922,14.3153132 9.75791016,15.63924 11.4958164,16.6269396 L12.4243672,26 L15.8100781,26 L17.4869766,18.5512459 C18.0286992,18.6088175 18.5723516,18.6378978 19.1123672,18.6378978 L29.0797969,18.6378978 L29.591832,20.2421735 L28.8731719,26 L32.4159297,26 L35.7734375,16.1495073 L35.7734375,19.7422132 L38,19.7422132 L38,8.69905992 C38,5.65446257 35.5029102,3.17748329 32.4335938,3.17748329 Z M8.32949609,10.2372975 C8.29735937,10.412442 8.14380078,10.5395855 7.96433984,10.5395855 L6.13722266,10.5395855 C5.95776172,10.5395855 5.80420312,10.412442 5.77206641,10.2373712 L4.74807031,4.64990373 L9.35356641,4.64990373 L8.32949609,10.2372975 Z M35.7734375,9.25364707 L31.7240625,21.1341658 L31.861293,20.0351512 L29.2645273,11.8995866 L27.1417227,12.5662986 L28.374793,16.4293408 L19.1123672,16.4293408 C18.3500664,16.4293408 17.5785625,16.3614622 16.8193789,16.2276192 L15.7702227,16.0426832 L14.3153867,22.5052101 L13.595168,15.234987 L13.0603477,14.9587609 C11.723,14.2679012 10.5139766,13.3484483 9.49272656,12.2547344 C10.0172305,11.8759542 10.3967109,11.3050232 10.5199883,10.6324952 L11.4816406,5.38611394 L11.8163672,5.38611394 C11.9704453,7.38337864 13.3650898,9.04176577 15.2356992,9.60106467 C15.8713828,9.79115415 16.4011562,10.239727 16.6454844,10.8521067 C17.1568516,12.1337751 18.4187187,13.0427002 19.890625,13.0427002 C21.3485781,13.0427002 22.6005,12.1509288 23.1210703,10.8884019 C23.381207,10.2575433 23.9256016,9.79277381 24.5860742,9.60489297 C26.5265234,9.05295617 28.005332,7.40693737 28.298125,5.38611394 L32.4335938,5.38611394 C34.2781523,5.38611394 35.7734375,6.86935667 35.7734375,8.69905992 L35.7734375,9.25364707 Z" id="Shape"></path>
                    <circle id="Oval" cx="31.5" cy="8.5" r="1.5"></circle>
                </g>
            </g>
        </g>
    </g>
</svg>